HIERARCHY
ROOT Pelvis
{
	OFFSET 0.000000 0.000000 0.000000
	CHANNELS 6 Xposition Yposition Zposition Xrotation Yrotation Zrotation
	JOINT LeftUpLeg_virtual
	{
		OFFSET 0.000000 0.000000 0.000000
		CHANNELS 3 Xrotation Yrotation Zrotation
		JOINT LeftUpLeg
		{
			OFFSET 8.479700 -4.795502 -0.379100
			CHANNELS 3 Xrotation Yrotation Zrotation
			JOINT LeftLeg
			{
				OFFSET 0.024144 -32.555107 0.112900
				CHANNELS 3 Xrotation Yrotation Zrotation
				JOINT LeftFoot
				{
					OFFSET -0.024144 -32.638630 -3.012600
					CHANNELS 3 Xrotation Yrotation Zrotation
					JOINT LeftToeBase
					{
						OFFSET 0.970200 -13.225400 11.864200
						CHANNELS 3 Xrotation Yrotation Zrotation
						End Site
						{
							OFFSET 0 0 0
						}
					}
				}
			}
		}
	}
	JOINT RightUpLeg_virtual
	{
		OFFSET 0.000000 0.000000 0.000000
		CHANNELS 3 Xrotation Yrotation Zrotation
		JOINT RightUpLeg
		{
			OFFSET -8.479700 -4.795502 -0.379100
			CHANNELS 3 Xrotation Yrotation Zrotation
			JOINT RightLeg
			{
				OFFSET -0.023144 -32.555092 0.112900
				CHANNELS 3 Xrotation Yrotation Zrotation
				JOINT RightFoot
				{
					OFFSET 0.023144 -32.638641 -3.012700
					CHANNELS 3 Xrotation Yrotation Zrotation
					JOINT RightToeBase
					{
						OFFSET -0.970200 -13.225400 11.864200
						CHANNELS 3 Xrotation Yrotation Zrotation
						End Site
						{
							OFFSET 0 0 0
						}
					}
				}
			}
		}
	}
	JOINT Hips_virtual
	{
		OFFSET 0.000000 0.000000 0.000000
		CHANNELS 3 Xrotation Yrotation Zrotation
		JOINT Hips
		{
			OFFSET -0.000000 -0.000000 -0.000000
			CHANNELS 3 Xrotation Yrotation Zrotation
			JOINT Spine
			{
				OFFSET 0.000000 7.722000 1.166200
				CHANNELS 3 Xrotation Yrotation Zrotation
				JOINT Spine1
				{
					OFFSET 0.000000 12.024101 0.248800
					CHANNELS 3 Xrotation Yrotation Zrotation
					JOINT Spine2
					{
						OFFSET 0.000000 11.502998 -0.491200
						CHANNELS 3 Xrotation Yrotation Zrotation
						JOINT Neck_virtual
						{
							OFFSET 0.000000 0.000000 0.000000
							CHANNELS 3 Xrotation Yrotation Zrotation
							JOINT Neck
							{
								OFFSET 0.000000 18.430702 -3.123100
								CHANNELS 3 Xrotation Yrotation Zrotation
								JOINT Head
								{
									OFFSET 0.000000 9.051102 1.034000
									CHANNELS 3 Xrotation Yrotation Zrotation
									End Site
									{
										OFFSET 0 0 0
									}
								}
							}
						}
						JOINT LeftShoulder_virtual
						{
							OFFSET 0.000000 0.000000 0.000000
							CHANNELS 3 Xrotation Yrotation Zrotation
							JOINT LeftShoulder
							{
								OFFSET 6.197800 13.665199 -4.064700
								CHANNELS 3 Xrotation Yrotation Zrotation
								JOINT LeftArm
								{
									OFFSET 7.778100 -0.187103 -1.709300
									CHANNELS 3 Xrotation Yrotation Zrotation
									JOINT LeftForeArm
									{
										OFFSET 22.049376 0.000000 0.000000
										CHANNELS 3 Xrotation Yrotation Zrotation
										JOINT LeftHand
										{
											OFFSET 23.009392 0.000000 0.000000
											CHANNELS 3 Xrotation Yrotation Zrotation
											End Site
											{
												OFFSET 0 0 0
											}
										}
									}
								}
							}
						}
						JOINT RightShoulder_virtual
						{
							OFFSET 0.000000 0.000000 0.000000
							CHANNELS 3 Xrotation Yrotation Zrotation
							JOINT RightShoulder
							{
								OFFSET -6.197800 13.665199 -4.064700
								CHANNELS 3 Xrotation Yrotation Zrotation
								JOINT RightArm
								{
									OFFSET -7.778100 -0.187103 -1.709300
									CHANNELS 3 Xrotation Yrotation Zrotation
									JOINT RightForeArm
									{
										OFFSET -22.049376 0.000000 0.000000
										CHANNELS 3 Xrotation Yrotation Zrotation
										JOINT RightHand
										{
											OFFSET -23.009392 0.000000 0.000000
											CHANNELS 3 Xrotation Yrotation Zrotation
											End Site
											{
												OFFSET 0 0 0
											}
										}
									}
								}
							}
						}
					}
				}
			}
		}
	}
}
MOTION
Frames: 6
Frame Time: 0.03333333
-2.698250 79.686180 -5.532446 0.000000 0.000000 0.000000 -2.955731 -1.471786 2.108041 -18.923323 6.717237 1.835925 30.616022 7.499006 -1.050862 -8.360810 0.506275 -1.443190 0.000000 0.000000 0.000000 -2.955731 -1.471786 2.108041 -7.723863 -16.517272 -13.901423 27.820979 -0.230414 -5.327598 -16.513053 -1.457422 15.322652 0.000000 0.000000 0.000000 -2.955731 -1.471786 2.108041 0.000000 0.000000 0.000000 8.851970 2.921012 -5.089765 1.276166 0.577129 -0.622581 0.000000 0.000000 0.000000 1.278387 0.567047 -0.629523 -6.061335 0.449845 0.950596 0.000000 0.000000 0.000000 1.278387 0.567047 -0.629523 -0.302510 5.872714 -1.999018 -14.720690 -10.177254 -69.280986 0.000002 -33.970229 0.000011 0.000000 0.000000 0.000000 1.278387 0.567047 -0.629523 4.545750 12.838999 -7.835330 -1.611814 -3.214997 72.442516 0.000000 36.829705 0.000012 0.000000 0.000000 0.000000 
-2.730825 79.682648 -5.636551 0.000000 0.000000 0.000000 -2.859588 -1.543709 2.091034 -19.106913 6.737209 1.911445 30.617067 7.767778 -1.087022 -8.259968 0.522355 -1.471110 0.000000 0.000000 0.000000 -2.859588 -1.543709 2.091034 -7.919395 -16.416192 -13.826606 27.882388 -0.094049 -5.285882 -16.580078 -1.592408 15.185013 0.000000 0.000000 0.000000 -2.859588 -1.543709 2.091034 0.000000 0.000000 0.000000 8.974254 2.815363 -5.203168 1.296462 0.561209 -0.636463 0.000000 0.000000 0.000000 1.298515 0.551111 -0.643279 -6.130195 0.380287 1.181956 0.000000 0.000000 0.000000 1.298515 0.551111 -0.643279 -0.303983 5.822776 -1.781757 -14.889689 -10.799706 -69.024451 0.000008 -34.489887 0.000006 0.000000 0.000000 0.000000 1.298515 0.551111 -0.643279 4.504494 12.696255 -7.406781 -1.846145 -3.449440 72.003793 0.000005 37.086558 -0.000012 0.000000 0.000000 0.000000 
-2.765702 79.680687 -5.748373 0.000000 0.000000 0.000000 -2.751052 -1.609916 2.067933 -19.308757 6.737931 1.983460 30.608806 8.069231 -1.107414 -8.143497 0.533078 -1.512654 0.000000 0.000000 0.000000 -2.751052 -1.609916 2.067933 -8.136790 -16.315217 -13.753651 27.952314 0.015008 -5.237103 -16.630732 -1.703377 15.065838 0.000000 0.000000 0.000000 -2.751052 -1.609916 2.067933 0.000000 0.000000 0.000000 9.104226 2.687214 -5.291867 1.319393 0.540907 -0.647529 0.000000 0.000000 0.000000 1.321271 0.530791 -0.654147 -6.190337 0.319002 1.390179 0.000000 0.000000 0.000000 1.321271 0.530791 -0.654147 -0.303281 5.756985 -1.555983 -15.042477 -11.360662 -68.812640 0.000005 -34.989212 0.000000 0.000000 0.000000 0.000000 1.321271 0.530791 -0.654147 4.474243 12.585511 -7.073514 -2.036073 -3.701655 71.662229 0.000004 37.330187 0.000005 0.000000 0.000000 0.000000 
-2.808936 79.684082 -5.880751 0.000000 0.000000 0.000000 -2.599265 -1.644405 2.029890 -19.568620 6.674523 2.034595 30.568146 8.491296 -1.072547 -7.979199 0.498314 -1.603400 0.000000 0.000000 0.000000 -2.599265 -1.644405 2.029890 -8.422391 -16.220601 -13.690692 28.049365 0.043377 -5.159186 -16.637328 -1.752279 14.991777 0.000000 0.000000 0.000000 -2.599265 -1.644405 2.029890 0.000000 0.000000 0.000000 9.247512 2.490500 -5.315817 1.348061 0.507319 -0.651501 0.000000 0.000000 0.000000 1.349748 0.497194 -0.657720 -6.227112 0.278792 1.541825 0.000000 0.000000 0.000000 1.349748 0.497194 -0.657720 -0.297160 5.645769 -1.293703 -15.168831 -11.755816 -68.723806 0.000004 -35.439738 0.000012 0.000000 0.000000 0.000000 1.349748 0.497194 -0.657720 4.469015 12.563350 -6.980664 -2.107499 -4.025328 71.586735 -0.000007 37.565303 0.000015 0.000000 0.000000 0.000000 
-2.851750 79.687737 -6.026060 0.000000 0.000000 0.000000 -2.447218 -1.702312 1.978147 -19.841630 6.604366 2.103597 30.529942 8.900110 -1.038451 -7.803955 0.517099 -1.692758 0.000000 0.000000 0.000000 -2.447218 -1.702312 1.978147 -8.725451 -16.114417 -13.619237 28.155501 0.039722 -5.090797 -16.625066 -1.757656 14.951301 0.000000 0.000000 0.000000 -2.447218 -1.702312 1.978147 0.000000 0.000000 0.000000 9.418033 2.273457 -5.296433 1.383672 0.469616 -0.649913 0.000000 0.000000 0.000000 1.385199 0.459451 -0.655662 -6.249580 0.254371 1.644644 0.000000 0.000000 0.000000 1.385199 0.459451 -0.655662 -0.286551 5.514381 -1.044846 -15.270256 -12.043489 -68.677634 0.000001 -35.845369 -0.000006 0.000000 0.000000 0.000000 1.385199 0.459451 -0.655662 4.475547 12.587489 -7.070217 -2.082174 -4.351413 71.670302 -0.000003 37.724661 0.000016 0.000000 0.000000 0.000000 
-2.886948 79.688049 -6.180353 0.000000 0.000000 0.000000 -2.338261 -1.820150 1.912346 -20.084395 6.563708 2.219354 30.519041 9.188486 -1.046573 -7.642204 0.678420 -1.744208 0.000000 0.000000 0.000000 -2.338261 -1.820150 1.912346 -8.994556 -15.986812 -13.519529 28.254604 0.037738 -5.072940 -16.609036 -1.737084 14.944556 0.000000 0.000000 0.000000 -2.338261 -1.820150 1.912346 0.000000 0.000000 0.000000 9.632860 2.056895 -5.234723 1.429080 0.431556 -0.642606 0.000000 0.000000 0.000000 1.430491 0.421272 -0.647861 -6.257622 0.247002 1.687131 0.000000 0.000000 0.000000 1.430491 0.421272 -0.647861 -0.271369 5.373832 -0.850810 -15.332238 -12.234167 -68.632828 0.000003 -36.212563 0.000003 0.000000 0.000000 0.000000 1.430491 0.421272 -0.647861 4.487081 12.634553 -7.361242 -1.952235 -4.614778 71.883834 -0.000008 37.704283 0.000015 0.000000 0.000000 0.000000 
